<?xml version="1.0" encoding="utf-8"?>
<!-- Generator: Adobe Illustrator 24.0.2, SVG Export Plug-In . SVG Version: 6.00 Build 0)  -->
<svg version="1.1" xmlns="http://www.w3.org/2000/svg" xmlns:xlink="http://www.w3.org/1999/xlink" x="0px" y="0px"
	 viewBox="0 0 850 792" style="enable-background:new 0 0 850 792;" xml:space="preserve">
<style type="text/css">
	.st0{fill:#3F7AB7;}
	.st1{fill:#407AB8;}
	.st2{fill:#828282;}
	.st3{fill:#FBFCFD;}
	.st4{fill:none;stroke:#3E7BB8;stroke-width:5;stroke-linecap:round;stroke-miterlimit:10;}
	.st5{display:none;fill:none;stroke:#9C9B9B;stroke-width:3;stroke-miterlimit:10;}
	.st6{fill:#C6C6C5;stroke:#C6C6C5;stroke-width:3;stroke-miterlimit:10;}
	.st7{fill:#868686;}
	.st8{fill:none;stroke:#868686;stroke-width:3;stroke-miterlimit:10;}
	.st9{fill:#6F6F6E;stroke:#6F6F6E;stroke-width:3;stroke-miterlimit:10;}
	.st10{fill:none;stroke:#9C9B9B;stroke-width:3;stroke-miterlimit:10;}
</style>
<g id="Capa_1">
	<path class="st0" d="M480.85,255.66c0-43.98,0-87.98,0-131.96c0-8.27,2.89-11.48,10.4-11.48c36.73-0.02,73.48-0.34,110.21,0.1
		c34.92,0.4,59.36,19.65,75.02,53.35c6.39,13.73,11.27,28.2,10.18,43.88c-1.96,28.34-11.34,52.97-32.09,71.04
		c-2.38,2.07-1.43,3.35-0.44,5.28c15.63,30.19,31.23,60.4,46.82,90.59c4.03,7.81,3.43,14.37-2.36,20.59
		c-2.89,3.09-6.57,5.02-10.73,5.16c-12.49,0.4-24.97,0.64-37.44,1.14c-3.68,0.14-6.28-1.18-8.35-4.6
		c-12.56-20.68-22.76-42.92-34.97-63.81c-5.64-9.66-10.98-19.53-16.35-29.37c-1.05-1.95-2.2-2.81-4.34-2.79
		c-12,0.12-24.01,0.16-36.01-0.02c-2.81-0.04-3.43,0.9-3.41,3.87c0.11,27.08,0.07,54.14,0.05,81.22c0,8.21-1.48,15.51-8.96,15.51
		c-15.68,0.04-32.16,0.04-47.84,0c-6.66-0.02-9.43-7.52-9.43-14.92C480.85,344.19,480.85,299.93,480.85,255.66z M547.07,207.61
		c0,8.91,0.09,17.84-0.05,26.76c-0.04,2.67,0.65,3.47,3.07,3.43c12.85-0.12,25.68-0.04,38.53-0.08c2.45,0,4.97-0.14,7.13-1.53
		c9.78-6.3,14.95-15.94,15.04-28.3c0.09-12.2-4.92-21.82-14.41-28.3c-1.76-1.2-3.79-1.75-5.95-1.73
		c-13.45,0.04-26.91,0.08-40.36-0.04c-2.45-0.02-3.09,0.82-3.03,3.43C547.16,190.03,547.07,198.82,547.07,207.61z"/>
	<path class="st1" d="M186.89,355.04c0.18-3.38,1.2-6.52,2.41-9.57c10.83-27.38,21.63-54.79,32.59-82.11
		c0.89-2.21-0.04-4.64-2.07-5.38c-27.68-10.08-55.88-13.46-84.82-10.04c-9.56,1.13-18.37,4.41-27.02,8.7
		c-1.13,0.56-2.25,1.07-3.39,1.59c-0.2,0.08-0.47-0.02-1-0.06c0.04-1.75,1.34-2.43,2.2-3.36c8.4-8.99,18.55-14.58,29.13-19.24
		c21.41-9.44,44.23-14.37,67.2-13.96c10.31,0.19,20.6,1.2,30.65,3.81c2.78,0.72,4.1,0.04,5.28-2.99
		c12.47-31.73,25.06-63.41,37.6-95.1c4.97-12.56,14.99-19.51,26.64-18.41c10.92,1.03,20.29,10.15,23.34,22.66
		c19.57,80.41,39.15,160.83,58.72,241.22c0.17,0.71,0.23,1.46,0.42,2.16c8.9,32.54-1.98,32.12-25.5,32.12
		c-11.29,1.96-18.52-2.88-21.35-16.1c-9.45-44.15-34.97-74.79-64.97-101.93c-2.63-2.37-3.58-1.77-4.85,1.48
		c-9.36,24.02-18.89,47.96-28.37,71.92c-1.81-0.82-3.61-1.65-5.43-2.45c-12.38-5.4-25.15-7.42-38.36-5.9
		C192.97,354.5,189.92,354.75,186.89,355.04z M296.15,219.97c-3.76,9.46-7.01,17.82-10.38,26.11c-0.82,2.02,0.2,2.68,1.38,3.57
		c4.57,3.46,9.11,6.97,13.63,10.48c1.91,1.48,3.48,3.57,6.32,4.87C303.45,249.92,299.95,235.54,296.15,219.97z"/>
	<path class="st1" d="M397.35,259.12c0-37.12-0.09-74.23,0.04-111.33c0.05-14.37,5.55-25.94,16.15-33.63
		c15.79-11.46,35.53-3.05,43.77,18.1c1.96,5.05,2.76,10.35,2.76,15.82c0.02,74.09,0.04,148.18-0.02,222.26
		c-0.04,34.02-7.91,33.27-26.71,36.23c-16.64,2.27-29.62-0.68-36.02-11.52c-0.8-3.51,0.01-22.21,0.01-25.84
		C397.35,332.5,397.35,295.8,397.35,259.12z"/>
	<path class="st2" d="M474.51,477.64c0-13.32,0.09-26.64-0.07-39.96c-0.04-3.36,0.62-4.56,3.79-4.47c8.53,0.21,8.55,0.04,8.55,9.82
		c0,18.76-0.07,37.53,0.07,56.29c0.02,3.36-0.89,3.94-3.68,4.19c-4.75,0.41-7.77-1.44-10.65-5.81
		c-8.44-12.76-17.37-25.09-26.19-37.71c-1.42,1.2-0.83,2.68-0.83,3.92c-0.05,11.96-0.11,23.9,0.04,35.86
		c0.04,2.97-0.82,3.71-3.32,3.69c-8.98-0.02-8.98,0.08-8.98-10.1c0-18.62,0.05-37.26-0.05-55.88c-0.02-3.07,0.51-4.1,3.54-4.37
		c4.72-0.41,7.53,1.59,10.29,5.75c8.71,13.2,17.8,26.08,26.75,39.1C473.97,477.82,474.24,477.72,474.51,477.64z"/>
	<path class="st2" d="M391.36,477.72c0-13.16,0.15-26.33-0.09-39.49c-0.07-3.98,0.78-5.22,4.39-5.07c7.97,0.33,7.99,0.1,7.99,9.22
		c0,19.03-0.07,38.09,0.07,57.12c0.02,3.18-0.85,3.71-3.5,3.98c-4.88,0.47-7.99-1.34-10.96-5.92c-7.86-12.04-16.3-23.61-24.52-35.34
		c-0.58-0.82-0.96-1.98-2.12-2.19c-1,1.32-0.51,2.93-0.51,4.37c-0.05,11.82-0.09,23.63,0.02,35.45c0.02,2.68-0.62,3.55-3.07,3.57
		c-8.98,0.06-8.98,0.16-8.98-10.1c0-18.62,0.05-37.24-0.05-55.86c-0.02-3.05,0.49-4.08,3.52-4.37c4.77-0.47,7.51,1.69,10.25,5.81
		c8.75,13.2,17.84,26.08,26.8,39.08C390.85,477.89,391.1,477.8,391.36,477.72z"/>
	<path class="st2" d="M323.67,468.79c-0.09,19.26-13.81,35.26-30.23,35.26c-16.66,0-30.16-16.35-30.02-36.33
		c0.15-19.03,14.16-35.24,30.43-35.18C310.07,432.6,323.76,449.24,323.67,468.79z M311.34,467.86c0.25-4.72-1.11-9.55-3.58-14.02
		c-6.39-11.59-20.92-12.06-27.88-0.89c-3.74,6-4.81,12.74-3.88,19.86c1.81,14.04,12.47,22.21,23.21,17.96
		C306.48,487.89,311.31,479.02,311.34,467.86z"/>
	<path class="st2" d="M516.74,468.3c0-10.41,0.07-20.85-0.05-31.26c-0.04-2.74,0.45-3.9,3.18-3.86c12,0.16,23.99,0.14,35.99,0
		c2.54-0.04,2.99,1.03,2.99,3.63c0,8.21,0.09,8.21-7.01,8.21c-6.73,0-13.47,0.08-20.2-0.04c-2.2-0.04-3.09,0.6-2.96,3.26
		c0.18,3.61,0.2,7.24,0,10.83c-0.16,2.91,0.94,3.44,3.21,3.4c6.48-0.14,12.98,0.08,19.45-0.1c2.52-0.06,3.38,0.72,3.34,3.69
		c-0.07,7.28,0.05,7.28-6.35,7.28c-5.63,0-11.27,0.08-16.9-0.04c-2.03-0.04-2.85,0.58-2.76,3.03c0.15,4.02,0.16,8.06,0,12.08
		c-0.11,2.64,0.74,3.3,2.94,3.26c8.08-0.12,16.15,0.08,24.23-0.12c2.79-0.06,3.83,0.66,3.74,4.08c-0.18,7.73-0.02,7.73-6.7,7.73
		c-10.65,0-21.31-0.21-31.94,0.1c-3.72,0.1-4.41-1.3-4.32-5.13C516.89,488.32,516.74,478.32,516.74,468.3z"/>
	<path class="st2" d="M594.74,467.99c0,11.05,5.08,20,12.96,22.91c6.95,2.56,14.7-0.27,18.8-7.11c1.14-1.92,1.98-2.45,3.7-1.01
		c1.38,1.13,2.87,2.23,4.45,2.89c3.56,1.51,2.74,3.77,1.07,6.27c-4.3,6.43-10.31,9.75-17.06,11.26
		c-16.48,3.69-31.81-8.27-35.46-27.45c-3.61-18.99,6.06-37.49,22-42.06c11.58-3.32,23.74,1.24,29.93,11.03
		c1.51,2.39,1.81,4.12-0.89,5.42c-0.11,0.06-0.2,0.16-0.29,0.25c-1.81,1.4-3.5,3.59-5.5,4.02c-2.49,0.56-2.81-3.13-4.32-4.72
		c-8.02-8.5-21.2-5.86-26.6,5.51C595.61,459.18,594.65,463.43,594.74,467.99z"/>
	<path class="st2" d="M677.26,474.09c0-8.62-0.07-17.24,0.05-25.86c0.04-2.58-0.71-3.36-2.94-3.28c-4.77,0.16-9.55-0.02-14.32,0.08
		c-1.89,0.04-2.49-0.68-2.58-2.87c-0.36-8.95-0.44-8.93,7.46-8.93c13.47,0,26.93,0.06,40.4-0.06c2.52-0.02,3.7,0.37,3.63,3.77
		c-0.15,8.04,0.02,7.94-7.17,8.1c-3.99,0.08-9.16-2-11.65,0.87c-2.3,2.66-0.62,8.47-0.65,12.89c-0.07,13.63-0.09,27.24,0.04,40.87
		c0.02,2.93-0.73,3.75-3.3,3.73c-8.97-0.02-8.97,0.08-8.97-10.15C677.26,486.88,677.26,480.48,677.26,474.09z"/>
	<path class="st1" d="M103.1,275.83c-0.18,0.16-0.33,0.39-0.49,0.39c-0.2,0.02-0.42-0.14-0.62-0.23c0.13-0.14,0.25-0.41,0.38-0.43
		C102.59,275.56,102.79,275.71,103.1,275.83z"/>
	<path class="st3" d="M311.34,467.86c-0.04,11.18-4.86,20.04-12.12,22.91c-10.74,4.25-21.41-3.92-23.21-17.96
		c-0.91-7.11,0.16-13.86,3.88-19.86c6.95-11.16,21.49-10.7,27.88,0.89C310.24,458.32,311.6,463.14,311.34,467.86z"/>
</g>
<g id="Capa_3">
	<path class="st4" d="M759.52,480.08c0.01,3.41-0.46,8.07-2.75,11.48c-5.09,7.56-15.88,4.04-22.02-1.28
		c-8.38-7.25-13.09-22.59-11.01-35.71c3.24-20.5,22.52-32.03,37.61-26.78c13.84,4.81,21.6,22.94,23.85,36.99
		c1.98,12.36-0.16,22.48-1.1,26.7c-4.62,20.88-15.81,34.48-20,34.52c-49.59,0.41-333.6,0.11-452.73-1.49"/>
	<line class="st4" x1="559.59" y1="513.85" x2="741.93" y2="513.94"/>
	<line class="st4" x1="314.71" y1="538.93" x2="518.89" y2="538.81"/>
</g>
<g id="Capa_4">
	<path class="st5" d="M221.51,271.52c-0.08,0.15-0.17,0.29-0.25,0.44"/>
	<path class="st5" d="M205.3,250.27"/>
	<g>
		<path class="st6" d="M222.3,484.95c-5.59,10.33-16.18,17.3-28.32,17.3c-17.98,0-32.55-15.28-32.55-34.13S176,434,193.98,434
			s32.55,15.28,32.55,34.13C226.52,474.24,224.99,479.99,222.3,484.95"/>
		<g id="XMLID_2_">
			<g>
				<path class="st7" d="M267.06,515.71l0.69,0.45c-15.31,25.84-42.62,43.05-73.78,43.05c-47.93,0-86.79-40.76-86.79-91.02
					s38.86-91,86.79-91c27.01,0,51.12,12.92,67.04,33.2c2.19,2.79,4.21,5.71,6.06,8.75l-17.44,11.93c0,0-0.26,0.18-0.69,0.47
					c-11.56-19.02-31.86-31.66-54.98-31.66c-35.95,0-65.1,30.55-65.1,68.26c0,37.69,29.15,68.26,65.1,68.26
					c23.5,0,44.09-13.07,55.54-32.64C253.74,506.64,267.06,515.71,267.06,515.71z"/>
			</g>
			<g>
				<path class="st8" d="M267.07,419.14l-17.44,11.93c0,0-0.26,0.18-0.69,0.47c-11.56-19.02-31.86-31.66-54.98-31.66
					c-35.95,0-65.1,30.55-65.1,68.26c0,37.69,29.15,68.26,65.1,68.26c23.5,0,44.09-13.07,55.54-32.64
					c4.23,2.89,17.54,11.96,17.54,11.96"/>
				<line class="st8" x1="267.78" y1="418.66" x2="267.09" y2="419.14"/>
				<path class="st8" d="M261.01,410.39c2.19,2.79,4.21,5.71,6.06,8.75h0.02c0.05,0.06,0.09,0.14,0.14,0.22
					c0.18,0.29,0.37,0.59,0.55,0.9"/>
				<path class="st8" d="M268.08,515.6c-0.11,0.19-0.21,0.39-0.34,0.56c-15.31,25.84-42.62,43.05-73.78,43.05
					c-47.93,0-86.79-40.76-86.79-91.02s38.86-91,86.79-91c27.01,0,51.12,12.92,67.04,33.2"/>
				<polyline class="st8" points="268.96,418.18 267.23,419.36 264.94,420.92 				"/>
				<line class="st8" x1="247.48" y1="432.8" x2="251.15" y2="430.31"/>
			</g>
		</g>
		<path class="st9" d="M304.06,395.28c-3.47-5.75-7.35-11.23-11.6-16.37c-28.82-34.86-74.18-52.47-117.7-45.74
			c-41.8,6.46-79.1,35.24-97.72,74.96c-3.91,8.34-6.93,17.06-9.08,25.98c-9.22,38.31-2.31,80.41,19.74,112.94
			c25.09,37,67.55,59.28,110.87,57.56c43.02-1.71,83.21-24.48,105.79-62.94l0,0l-19.57-13.33l0,0
			c-20.5,35.41-56.9,55.39-96.37,53.41c-35.2-1.76-68.01-21.98-86.72-53.27c-19.19-32.09-21.75-73.27-6.7-107.71
			c14.56-33.32,44.4-57.82,78.78-64.5c38.49-7.48,78.68,7.82,103.6,39.46c2.97,3.77,7.87,9.74,7.87,9.74l18.38-12.52"/>
	</g>
	<path class="st10" d="M233.56,514.68"/>
</g>
</svg>
