<?xml version="1.0" encoding="utf-8"?>
<!-- Generator: Adobe Illustrator 24.0.2, SVG Export Plug-In . SVG Version: 6.00 Build 0)  -->
<svg version="1.1" id="Capa_1" xmlns="http://www.w3.org/2000/svg" xmlns:xlink="http://www.w3.org/1999/xlink" x="0px" y="0px"
	 viewBox="0 0 850 792" style="enable-background:new 0 0 850 792;" xml:space="preserve">
<style type="text/css">
	.st0{display:none;fill:none;stroke:#9C9B9B;stroke-width:3;stroke-miterlimit:10;}
	.st1{fill:none;stroke:#1D1D1B;stroke-width:3;stroke-miterlimit:10;}
	.st2{fill:#3E7BB8;stroke:#3E7BB8;stroke-width:3;stroke-miterlimit:10;}
	.st3{fill:#FFFFFF;stroke:#3E7BB8;stroke-width:3;stroke-miterlimit:10;}
	.st4{fill:none;stroke:#9C9B9B;stroke-width:3;stroke-miterlimit:10;}
	.st5{fill:#C6C6C5;stroke:#C6C6C5;stroke-width:3;stroke-miterlimit:10;}
	.st6{fill:#868686;}
	.st7{fill:none;stroke:#868686;stroke-width:3;stroke-miterlimit:10;}
	.st8{fill:#6F6F6E;stroke:#6F6F6E;stroke-width:3;stroke-miterlimit:10;}
	.st9{fill:none;stroke:#3E7BB8;stroke-width:2;stroke-miterlimit:10;}
</style>
<g id="Capa_4">
	<path class="st0" d="M221.51,271.52c-0.08,0.15-0.17,0.29-0.25,0.44"/>
	<path class="st0" d="M205.3,250.27"/>
</g>
<path class="st1" d="M259.74,399.32"/>
<path class="st1" d="M285.65,332.97"/>
<path class="st1" d="M289.94,322.32"/>
<path class="st1" d="M395.9,338.18"/>
<path class="st1" d="M395.9,338.18"/>
<path class="st1" d="M612.09,455.8"/>
<path class="st1" d="M609.15,458.08"/>
<path class="st1" d="M609.15,458.08"/>
<path class="st1" d="M521.02,526.25"/>
<path class="st1" d="M514.7,531.13"/>
<path class="st2" d="M509.91,522.04c-1.96,5.27-8.68,6.62-12.46,2.55c-19.36-20.87-37.59-36.68-52.26-48.2
	c-38.96-30.59-65.18-40.59-79.44-45.1c-2.89-0.91-4.57-2.01-5.03-1.46c-3.3,3.9-107.23,234.11-131.05,289.73
	c-2.67,6.22-8.69,10.26-15.34,10.28L158.66,730c-15.25,0.05-25.56-15.71-19.68-30.07L255.3,415.72c1.87-4.58-0.95-9.71-5.75-10.47
	c-11.23-1.77-20.52-2.76-31.19-3.71c-1.9-0.17-13.91-1.22-27.07-1.66c-23.74-0.79-63.37-1.98-105.2,8.45
	c-42.19,10.52-49.45,17.1-57.31,20.96c-4.82,2.37,54.7-56.68,133.38-83.1c48.94-16.43,92.44-18.37,122.18-17.09
	c3.17,0.14,6.07-1.76,7.29-4.75l88.37-217.33c0.07-0.17,0.15-0.34,0.23-0.51L391.82,83c14.07-28.52,54.25-27.85,67.05,1.13
	l10.39,23.52l127.5,317.38c1.57,3.9-0.26,8.36-4.1,9.98c-13.52,5.73-33.98,16.79-52.75,37.53
	C523.9,490.22,514.95,508.5,509.91,522.04z"/>
<path class="st3" d="M426.15,214.44c23.9,56.45,60.32,125.33,84.22,181.78c-45.71-19.55-90.97-44.25-136.69-63.8L426.15,214.44z"/>
<path class="st4" d="M740.86,623.89c-0.28,0.49-0.57,0.97-0.86,1.46"/>
<path class="st4" d="M685.59,552.85"/>
<g>
	<path class="st5" d="M713.41,577.18c-7.37,12.78-21.32,21.39-37.31,21.39c-23.68,0-42.88-18.89-42.88-42.19
		c0-23.3,19.2-42.19,42.88-42.19s42.88,18.89,42.88,42.19C718.97,563.94,716.95,571.04,713.41,577.18"/>
	<g id="XMLID_2_">
		<g>
			<path class="st6" d="M676.09,472c-47.35,0-85.75,37.79-85.75,84.39s38.4,84.39,85.75,84.39c30.96,0,58.08-16.14,73.15-40.33
				c5.59,3.55,23.13,14.77,23.13,14.77l0.91,0.56c-20.17,31.95-56.15,53.23-97.19,53.23c-63.15,0-114.33-50.39-114.33-112.53
				s51.19-112.51,114.33-112.51c35.58,0,67.34,15.98,88.32,41.04c2.86,3.45,5.55,7.07,7.97,10.82l-22.97,14.75
				c0,0-0.34,0.22-0.91,0.6C733.29,487.62,706.54,472,676.09,472z"/>
		</g>
		<g>
			<path class="st7" d="M772.37,495.81l-22.97,14.75c0,0-0.34,0.22-0.91,0.6c-15.21-23.54-41.95-39.16-72.4-39.16
				c-47.35,0-85.75,37.79-85.75,84.39s38.4,84.39,85.75,84.39c30.96,0,58.08-16.14,73.15-40.33c5.59,3.55,23.13,14.77,23.13,14.77"
				/>
			<line class="st7" x1="773.3" y1="495.22" x2="772.39" y2="495.81"/>
			<path class="st7" d="M764.41,485c2.86,3.45,5.55,7.07,7.97,10.82h0.02c0.08,0.08,0.14,0.18,0.18,0.28
				c0.24,0.36,0.48,0.73,0.73,1.11"/>
			<path class="st7" d="M773.72,615.07c-0.14,0.24-0.28,0.48-0.44,0.69c-20.17,31.95-56.15,53.23-97.19,53.23
				c-63.15,0-114.33-50.39-114.33-112.53s51.19-112.51,114.33-112.51c35.58,0,67.34,15.98,88.32,41.04"/>
			<polyline class="st7" points="774.85,494.62 772.57,496.09 769.57,498.02 			"/>
			<line class="st7" x1="746.58" y1="512.7" x2="751.4" y2="509.63"/>
		</g>
	</g>
	<path class="st8" d="M821.11,466.32c-4.57-7.11-9.68-13.89-15.28-20.24c-37.96-43.1-97.72-64.87-155.05-56.55
		c-55.07,7.99-104.2,43.56-128.73,92.68c-5.15,10.31-9.13,21.09-11.96,32.12c-12.15,47.36-3.04,99.42,26,139.63
		c33.05,45.75,88.99,73.29,146.06,71.16c56.67-2.11,109.62-30.26,139.36-77.82l0,0l-25.78-16.48l0,0
		c-27.01,43.78-74.96,68.48-126.95,66.04c-46.37-2.18-89.59-27.17-114.24-65.86c-25.28-39.67-28.66-90.59-8.83-133.16
		c19.18-41.19,58.49-71.49,103.78-79.75c50.71-9.25,103.65,9.66,136.48,48.79c3.91,4.66,10.36,12.05,10.36,12.05l24.21-15.47"/>
</g>
<path class="st4" d="M757.48,639.63"/>
<path class="st9" d="M606.73,91.5c0,1.79-0.34,4.24-2.04,6.03c-3.77,3.97-11.76,2.12-16.31-0.67c-6.2-3.81-9.69-11.87-8.16-18.77
	c2.4-10.77,16.69-16.84,27.86-14.08c10.26,2.53,16,12.05,17.67,19.44c1.46,6.49-0.12,11.82-0.81,14.03
	c-3.42,10.97-11.71,18.12-14.82,18.14c-136.29,0.8-136.29,0.8-136.29,0.8"/>
<path class="st9" d="M570.67,146.46c0-1.54-0.28-3.64-1.7-5.18c-3.15-3.41-9.83-1.82-13.63,0.58c-5.19,3.27-8.1,10.2-6.82,16.12
	c2.01,9.25,13.95,14.46,23.29,12.09c8.57-2.17,13.38-10.36,14.77-16.7c1.22-5.58-0.1-10.15-0.68-12.06
	c-2.86-9.43-9.79-15.57-12.39-15.58c-113.91-0.69-113.91-0.69-113.91-0.69"/>
<line class="st9" x1="469.75" y1="136.28" x2="548.46" y2="136.28"/>
<line class="st9" x1="468.88" y1="107.08" x2="584.55" y2="107.08"/>
</svg>
